<svg xmlns="http://www.w3.org/2000/svg" viewBox="0 0 500 500"><g id="freepik--Charts--inject-6"><path d="M187.28,267.12c0,.15-6.52.26-14.57.26s-14.57-.11-14.57-.26,6.52-.26,14.57-.26S187.28,267,187.28,267.12Z" style="fill:#263238"></path><path d="M186.75,270.88c0,.14-6.4.26-14.31.26s-14.3-.12-14.3-.26,6.4-.27,14.3-.27S186.75,270.73,186.75,270.88Z" style="fill:#263238"></path><path d="M186.75,274.63c0,.14-6.4.26-14.31.26s-14.3-.12-14.3-.26,6.4-.26,14.3-.26S186.75,274.48,186.75,274.63Z" style="fill:#263238"></path><path d="M186.75,278.38c0,.14-6.4.26-14.31.26s-14.3-.12-14.3-.26,6.4-.26,14.3-.26S186.75,278.23,186.75,278.38Z" style="fill:#263238"></path><path d="M186.75,282.13c0,.14-6.4.26-14.31.26s-14.3-.12-14.3-.26,6.4-.26,14.3-.26S186.75,282,186.75,282.13Z" style="fill:#263238"></path><path d="M172.09,285.88a47.61,47.61,0,0,1-7,.26,47.53,47.53,0,0,1-7-.26,45.91,45.91,0,0,1,7-.26A46,46,0,0,1,172.09,285.88Z" style="fill:#263238"></path><path d="M180.25,263c0,.15-5,.26-11.1.26s-11.1-.11-11.1-.26,5-.26,11.1-.26S180.25,262.88,180.25,263Z" style="fill:#ECEFF1"></path><path d="M195,295.23s0-.28,0-.8,0-1.29,0-2.27c0-2,0-4.89-.06-8.57,0-7.37-.06-17.87-.11-30.5l.22.22-46.06,0,.25-.25h0v11.3c0,3.71,0,7.34,0,10.87,0,7.07,0,13.77,0,20l-.23-.23,33.29.12,9.41.06,2.5,0,.65,0h-.6l-2.45,0-9.36.06-33.44.12h-.23v-.23c0-6.18,0-12.88,0-20,0-3.53,0-7.16,0-10.87v-11.3h0l.27-.27,46.06,0h.23v.22c0,12.68-.08,23.24-.11,30.64,0,3.66,0,6.53-.06,8.52,0,1,0,1.7,0,2.23S195,295.23,195,295.23Z" style="fill:#263238"></path><path d="M166.5,139.12l22.14-.14a28.2,28.2,0,0,0-7.12-18.27,26.21,26.21,0,0,0-22.93-8.81c-1.06.12-2.13.29-3.22.52l-.08,0h0l6,26.68Z" style="fill:#ECEFF1"></path><path d="M173.32,166.62a26.27,26.27,0,0,0,15.07-21.53c0-.28.06-.56.08-.85s0-.35,0-.54c0-.52,0-1.06.05-1.6V142h0V142h0l-22.15.15-5.2,0-5.83,26.69v0h0a26.91,26.91,0,0,0,5.75.59A28.71,28.71,0,0,0,173.32,166.62Z" style="fill:#455a64"></path><path d="M158.53,140.55l-6-26.68a27.35,27.35,0,0,0,.18,53.41l5.82-26.69" style="fill:#263238"></path><rect x="92.5" y="258.32" width="5.99" height="45.23" style="fill:#ECEFF1"></rect><rect x="83.27" y="277.35" width="5.99" height="26.2" style="fill:#455a64"></rect><rect x="74.04" y="273.27" width="5.99" height="30.28" style="fill:#ECEFF1"></rect><rect x="64.8" y="291.34" width="5.99" height="12.21" style="fill:#455a64"></rect><rect x="110.97" y="248.44" width="5.99" height="55.11" style="fill:#ECEFF1"></rect><rect x="101.74" y="253.47" width="5.99" height="50.08" style="fill:#455a64"></rect><rect x="129.44" y="242.98" width="5.99" height="60.57" style="fill:#ECEFF1"></rect><rect x="120.2" y="231.02" width="5.99" height="72.53" style="fill:#455a64"></rect><path d="M70.64,309.23a7.08,7.08,0,0,1-2.65.26,7.08,7.08,0,0,1-2.65-.26A6.84,6.84,0,0,1,68,309,6.84,6.84,0,0,1,70.64,309.23Z" style="fill:#263238"></path><path d="M79.74,309.23a7,7,0,0,1-2.65.26,7.08,7.08,0,0,1-2.65-.26,6.84,6.84,0,0,1,2.65-.26A6.8,6.8,0,0,1,79.74,309.23Z" style="fill:#263238"></path><path d="M88.85,309.23a7.08,7.08,0,0,1-2.65.26,7,7,0,0,1-2.65-.26A6.8,6.8,0,0,1,86.2,309,6.84,6.84,0,0,1,88.85,309.23Z" style="fill:#263238"></path><path d="M98,309.23a7.08,7.08,0,0,1-2.65.26,7,7,0,0,1-2.65-.26A6.8,6.8,0,0,1,95.3,309,6.84,6.84,0,0,1,98,309.23Z" style="fill:#263238"></path><path d="M107.05,309.23a7.08,7.08,0,0,1-2.65.26,7.08,7.08,0,0,1-2.65-.26,6.84,6.84,0,0,1,2.65-.26A6.84,6.84,0,0,1,107.05,309.23Z" style="fill:#263238"></path><path d="M116.15,309.23a7.08,7.08,0,0,1-2.65.26,7.08,7.08,0,0,1-2.65-.26,6.84,6.84,0,0,1,2.65-.26A6.84,6.84,0,0,1,116.15,309.23Z" style="fill:#263238"></path><path d="M125.25,309.23a7,7,0,0,1-2.65.26,7.08,7.08,0,0,1-2.65-.26,6.84,6.84,0,0,1,2.65-.26A6.8,6.8,0,0,1,125.25,309.23Z" style="fill:#263238"></path><path d="M134.35,309.23a13.58,13.58,0,0,1-5.29,0,6.8,6.8,0,0,1,2.65-.26A6.77,6.77,0,0,1,134.35,309.23Z" style="fill:#263238"></path><path d="M137.54,314.56c0,.14-6.5.26-14.53.26s-14.54-.12-14.54-.26,6.51-.26,14.54-.26S137.54,314.41,137.54,314.56Z" style="fill:#263238"></path><path d="M120.2,317.62a25.53,25.53,0,0,1-5.1.26,25.61,25.61,0,0,1-5.1-.26,24.74,24.74,0,0,1,5.1-.26A24.66,24.66,0,0,1,120.2,317.62Z" style="fill:#263238"></path><path d="M120.9,228.39a1.46,1.46,0,0,1,.83.16,3.28,3.28,0,0,1,1.86,3.27,2.84,2.84,0,0,1-.82,1.71,3.54,3.54,0,0,1-4.07.72,3.69,3.69,0,0,1-1.78-3.74,3.31,3.31,0,0,1,.79-1.72,3.65,3.65,0,0,1,1.34-.94,3.74,3.74,0,0,1,2.29-.2c.54.14.79.32.77.35s-.29-.08-.8-.15a3.77,3.77,0,0,0-2.11.34,3.05,3.05,0,0,0-1.81,2.38,3.27,3.27,0,0,0,1.55,3.22,3.11,3.11,0,0,0,3.49-.59,2.6,2.6,0,0,0,.56-2.86,3.12,3.12,0,0,0-1.35-1.61C121.19,228.48,120.89,228.44,120.9,228.39Z" style="fill:#263238"></path><path d="M125.63,146a1.6,1.6,0,0,1-.35,0l-1,0-4,.06.13-.12c.08,7.09.13,21.21.13,37.44,0,11.81,0,22.49-.07,30.28,0,3.84-.07,7-.09,9.17,0,1,0,1.88,0,2.5a4.52,4.52,0,0,1,0,.87,5.89,5.89,0,0,1-.05-.87c0-.62,0-1.45,0-2.5,0-2.21,0-5.33-.08-9.17,0-7.79,0-18.47-.08-30.28,0-16.23.06-30.35.14-37.44v-.13h.12l4,.06,1,0Z" style="fill:#263238"></path><path d="M81.92,193.92c0,.14-6.53.26-14.58.26s-14.57-.12-14.57-.26,6.52-.26,14.57-.26S81.92,193.78,81.92,193.92Z" style="fill:#263238"></path><path d="M81.39,197.67c0,.15-6.41.26-14.31.26s-14.31-.11-14.31-.26,6.4-.26,14.31-.26S81.39,197.53,81.39,197.67Z" style="fill:#263238"></path><path d="M81.39,201.42c0,.15-6.41.26-14.31.26s-14.31-.11-14.31-.26,6.4-.26,14.31-.26S81.39,201.28,81.39,201.42Z" style="fill:#263238"></path><path d="M81.39,205.17c0,.15-6.41.26-14.31.26s-14.31-.11-14.31-.26,6.4-.26,14.31-.26S81.39,205,81.39,205.17Z" style="fill:#263238"></path><path d="M81.39,208.92c0,.15-6.41.26-14.31.26s-14.31-.11-14.31-.26,6.4-.26,14.31-.26S81.39,208.78,81.39,208.92Z" style="fill:#263238"></path><path d="M66.73,212.67a46.1,46.1,0,0,1-7,.26,46,46,0,0,1-7-.26,47.61,47.61,0,0,1,7-.26A47.72,47.72,0,0,1,66.73,212.67Z" style="fill:#263238"></path><path d="M74.88,189.82c0,.14-5,.26-11.1.26s-11.1-.12-11.1-.26,5-.26,11.1-.26S74.88,189.68,74.88,189.82Z" style="fill:#ECEFF1"></path><path d="M88.7,221.55s0-.28,0-.8,0-1.29,0-2.27c0-2,0-4.89-.06-8.57,0-7.37-.07-17.87-.11-30.5l.22.22-46.07,0c-.06.06.49-.49.26-.25h0v11.3c0,3.71,0,7.34,0,10.87,0,7.07,0,13.77,0,20l-.23-.23,33.29.11,9.41.06,2.49,0h.65l.23,0h-.83l-2.45,0-9.35.06-33.44.12H42.4v-.23c0-6.18,0-12.88,0-20,0-3.53,0-7.16,0-10.87v-11.3h0c-.24.23.31-.33.26-.27l46.07,0h.22v.22c0,12.68-.09,23.23-.11,30.64,0,3.66,0,6.53-.06,8.52,0,1,0,1.7,0,2.23S88.7,221.55,88.7,221.55Z" style="fill:#263238"></path><path d="M74.9,239.16a68.58,68.58,0,0,1-.26-8.38,68.58,68.58,0,0,1,.26-8.38,68.58,68.58,0,0,1,.26,8.38A68.58,68.58,0,0,1,74.9,239.16Z" style="fill:#263238"></path><path d="M76.81,235.34a16.34,16.34,0,0,0-1,4.14v.11l0,.75-.43-.61a8,8,0,0,1-1.65-4c.14-.05.73,1.76,2.08,3.66l-.48.14v-.12A6.15,6.15,0,0,1,76.81,235.34Z" style="fill:#263238"></path><path d="M361.33,120.93c-.14,0-.26-.67-.26-1.5s.12-1.5.26-1.5.26.67.26,1.5S361.47,120.93,361.33,120.93Z" style="fill:#263238"></path><path d="M361.33,126.94c-.14,0-.26-.67-.26-1.5s.12-1.51.26-1.51.26.68.26,1.51S361.47,126.94,361.33,126.94Z" style="fill:#263238"></path><path d="M361.33,132.94c-.14,0-.26-.67-.26-1.5s.12-1.5.26-1.5.26.67.26,1.5S361.47,132.94,361.33,132.94Z" style="fill:#263238"></path><path d="M361.33,138.93c-.14,0-.26-.67-.26-1.49s.12-1.5.26-1.5.26.67.26,1.5S361.47,138.93,361.33,138.93Z" style="fill:#263238"></path><path d="M361.33,144.93c-.14,0-.26-.67-.26-1.5s.12-1.5.26-1.5.26.67.26,1.5S361.47,144.93,361.33,144.93Z" style="fill:#263238"></path><path d="M361.33,150.92c-.14,0-.26-.67-.26-1.5s.12-1.5.26-1.5.26.67.26,1.5S361.47,150.92,361.33,150.92Z" style="fill:#263238"></path><path d="M361.33,156.92c-.14,0-.26-.68-.26-1.5s.12-1.5.26-1.5.26.67.26,1.5S361.47,156.92,361.33,156.92Z" style="fill:#263238"></path><path d="M361.33,162.91c-.14,0-.26-.67-.26-1.5s.12-1.5.26-1.5.26.67.26,1.5S361.47,162.91,361.33,162.91Z" style="fill:#263238"></path><rect x="238.5" y="42.39" width="160.54" height="68.24" rx="3.96" style="fill:#455a64"></rect><path d="M285.69,67.74a17.4,17.4,0,0,0-14.14-10.15l-.56-.06-.36,0-1.06,0h-.1l-.08,14.66v3.45L287,79.63h0a17.15,17.15,0,0,0,.44-3.79A19.12,19.12,0,0,0,285.69,67.74Z" style="fill:#fafafa"></path><path d="M266.69,77.47l0-3.24.08-14.66a18.7,18.7,0,0,0-12.15,4.57,17.33,17.33,0,0,0-6,15.11c.06.63.16,1.27.28,1.92l-.13,0c2.34,8.44,10,14.82,17.49,14.34,8.66-.55,16-5.91,17.87-14Z" style="fill:#e0e0e0"></path><path d="M330,65.18c0,.14-7.07.26-15.79.26s-15.8-.12-15.8-.26,7.07-.26,15.8-.26S330,65,330,65.18Z" style="fill:#263238"></path><path d="M330,71.25c0,.14-7.07.26-15.79.26s-15.8-.12-15.8-.26,7.07-.26,15.8-.26S330,71.1,330,71.25Z" style="fill:#263238"></path><path d="M330,77.32c0,.14-7.07.26-15.79.26s-15.8-.12-15.8-.26,7.07-.26,15.8-.26S330,77.18,330,77.32Z" style="fill:#263238"></path><path d="M330,83.39c0,.14-7.07.26-15.79.26s-15.8-.12-15.8-.26,7.07-.26,15.8-.26S330,83.25,330,83.39Z" style="fill:#263238"></path><path d="M316.89,90a14.76,14.76,0,0,1-2.71.18c-1.67,0-4,.08-6.54.08s-4.88,0-6.55-.08a14.76,14.76,0,0,1-2.71-.18,14.11,14.11,0,0,1,2.71-.19c1.67,0,4-.07,6.55-.07s4.87,0,6.54.07A14.11,14.11,0,0,1,316.89,90Z" style="fill:#263238"></path><path d="M352.48,59.6a2,2,0,0,1,.68-.36,5.8,5.8,0,0,1,2.1-.39,6.09,6.09,0,0,1,.72,0l.38.06h.05c-.13-.21.19.29.15.24h0v0l0,.1,0,.19c-.12.52-.23,1.07-.36,1.64-.26,1.18-.55,2.46-.85,3.81l0,.2h-1.53l-4.6,0h-.24V64.9a6.24,6.24,0,0,1,.65-2.69,5.52,5.52,0,0,1,1.32-1.69,5.19,5.19,0,0,1,1.16-.76c.29-.13.45-.18.46-.16s-.61.33-1.43,1.13a5.78,5.78,0,0,0-1.69,4.17l-.23-.24H355l-.25.2.9-3.79c.14-.57.28-1.12.41-1.64l0-.19,0-.09v0h0s.28.45.14.24h-.05l-.35-.07a5.31,5.31,0,0,0-.67-.08A9.71,9.71,0,0,0,352.48,59.6Z" style="fill:#e0e0e0"></path><path d="M355.66,65.81H354.6l-4.79,0a6.19,6.19,0,0,0,1.5,4,5.68,5.68,0,0,0,4.94,2l.62-.09v0c2.76-.76,4.84-3.25,4.69-5.71A6.17,6.17,0,0,0,357,60.1Z" style="fill:#fafafa"></path><path d="M352.48,81.13a5.68,5.68,0,0,0-3.31,4.62c0,.06,0,.12,0,.18s0,.08,0,.12,0,.23,0,.34v0h0v0h0l4.79,0H355l1.33-5.76h0a5.68,5.68,0,0,0-1.24-.14A6.15,6.15,0,0,0,352.48,81.13Z" style="fill:#fafafa"></path><path d="M355.66,87.33a14,14,0,0,1,.28-1.6c.22-1.07.51-2.46.86-4.14l0-.18.19,0a6,6,0,0,1,4.37,4,6,6,0,0,1,.25,3.59,6.28,6.28,0,0,1-2.21,3.16A7.44,7.44,0,0,1,357,93.43l-.26.07-.06-.27v0l.3.2a6.4,6.4,0,0,1-3.05-.15,6,6,0,0,1-2.43-1.49,6.31,6.31,0,0,1-1.81-4.46V87.1h.19l4.28.1a12.25,12.25,0,0,1,1.56.12,8.6,8.6,0,0,1-1.57.09l-4.28.06.19-.18a6,6,0,0,0,1.77,4.12,5.53,5.53,0,0,0,5.05,1.46l.25,0,.05.25v0l-.32-.2a6.84,6.84,0,0,0,2.3-1.16,5.77,5.77,0,0,0,2-2.89,5.58,5.58,0,0,0-.21-3.29,5.73,5.73,0,0,0-4-3.78l.22-.14c-.44,1.79-.81,3.23-1.07,4.2A9.32,9.32,0,0,1,355.66,87.33Z" style="fill:#e0e0e0"></path><path d="M387.53,84.21a97.65,97.65,0,0,1-10,.26,97.77,97.77,0,0,1-10-.26,92.72,92.72,0,0,1,10-.27A92.6,92.6,0,0,1,387.53,84.21Z" style="fill:#263238"></path><path d="M377.53,86.88a48.3,48.3,0,0,1-10,0,48.3,48.3,0,0,1,10,0Z" style="fill:#263238"></path><path d="M387.53,62.69a92.6,92.6,0,0,1-10,.27,92.72,92.72,0,0,1-10-.27,97.77,97.77,0,0,1,10-.26A97.65,97.65,0,0,1,387.53,62.69Z" style="fill:#263238"></path><path d="M377.53,65.37a48.3,48.3,0,0,1-10,0,48.3,48.3,0,0,1,10,0Z" style="fill:#263238"></path><path d="M339.87,101.28c-.15,0-.26-12-.26-26.89s.11-26.89.26-26.89.26,12,.26,26.89S340,101.28,339.87,101.28Z" style="fill:#263238"></path><rect x="331.38" y="168.13" width="6.2" height="55.94" style="fill:#ECEFF1"></rect><rect x="343.34" y="187.13" width="6.2" height="36.94" style="fill:#ECEFF1"></rect><rect x="355.3" y="175.09" width="6.2" height="49.27" style="fill:#ECEFF1"></rect><rect x="367.27" y="170.29" width="6.2" height="53.78" style="fill:#ECEFF1"></rect><rect x="379.23" y="188.27" width="6.2" height="35.8" style="fill:#ECEFF1"></rect><rect x="391.19" y="195.29" width="6.2" height="28.78" style="fill:#ECEFF1"></rect><rect x="403.15" y="173.87" width="6.2" height="50.2" style="fill:#ECEFF1"></rect><rect x="415.11" y="182.92" width="6.2" height="41.15" style="fill:#ECEFF1"></rect><rect x="427.08" y="175.69" width="6.2" height="48.38" style="fill:#ECEFF1"></rect><rect x="439.04" y="191.11" width="6.2" height="32.96" style="fill:#ECEFF1"></rect><rect x="451" y="184.84" width="6.2" height="39.23" style="fill:#ECEFF1"></rect><path d="M453.36,180.82l-.38,0-1.08-.17a17.34,17.34,0,0,0-1.77-.23l-1.13-.12-1.29-.05a33.43,33.43,0,0,0-6.64.36,36.71,36.71,0,0,0-8.47,2.3,35,35,0,0,0-9.15,5.41,48.18,48.18,0,0,0-8.18,9.07c-2.6,3.44-5.25,7.23-8.93,10.29a22.64,22.64,0,0,1-6.21,3.74,14.82,14.82,0,0,1-7.39.91,17.31,17.31,0,0,1-7-2.64,29.79,29.79,0,0,1-5.53-4.67c-3.28-3.47-5.66-7.4-8.16-10.92a40.16,40.16,0,0,0-8.15-9.07,21.46,21.46,0,0,0-4.78-2.72,22.49,22.49,0,0,0-4.92-1.32,23.65,23.65,0,0,0-14.89,2.77,23,23,0,0,0-3.42,2.45l-.81.73c-.18.17-.28.25-.29.24s.08-.1.25-.28l.78-.77a21.62,21.62,0,0,1,3.38-2.55,23.62,23.62,0,0,1,15-3,22.66,22.66,0,0,1,5,1.32,21.15,21.15,0,0,1,4.9,2.75,40.2,40.2,0,0,1,8.28,9.13c2.53,3.53,4.91,7.44,8.14,10.85A29.41,29.41,0,0,0,386,209.2a17,17,0,0,0,6.76,2.57,14.46,14.46,0,0,0,7.15-.88,21.79,21.79,0,0,0,6.06-3.66c3.62-3,6.26-6.73,8.88-10.18,1.3-1.73,2.6-3.41,4-5,.68-.76,1.37-1.52,2.11-2.2l1.08-1c.37-.33.76-.63,1.13-.94a35.07,35.07,0,0,1,9.28-5.41,36.38,36.38,0,0,1,8.57-2.25,34,34,0,0,1,6.69-.28l1.3.08,1.13.15a15.81,15.81,0,0,1,1.77.28l1.08.22Z" style="fill:#263238"></path><path d="M324.56,228c-.14,0-.26-15.95-.26-35.62s.12-35.63.26-35.63.26,15.95.26,35.63S324.7,228,324.56,228Z" style="fill:#263238"></path><path d="M459.72,228c0,.14-29.39.26-65.63.26s-65.64-.12-65.64-.26,29.38-.26,65.64-.26S459.72,227.83,459.72,228Z" style="fill:#263238"></path><path d="M340.22,232.37a40.82,40.82,0,0,1-9.2,0,40.82,40.82,0,0,1,9.2,0Z" style="fill:#263238"></path><path d="M355.47,232.6a58.2,58.2,0,0,1-11,0,58.2,58.2,0,0,1,11,0Z" style="fill:#263238"></path><path d="M368.48,232.6a58.2,58.2,0,0,1-11,0,58.2,58.2,0,0,1,11,0Z" style="fill:#263238"></path><path d="M381.49,232.6a58.2,58.2,0,0,1-11,0,58.2,58.2,0,0,1,11,0Z" style="fill:#263238"></path><path d="M394.5,232.6a58.2,58.2,0,0,1-11,0,58.2,58.2,0,0,1,11,0Z" style="fill:#263238"></path><path d="M407.51,232.6a58.2,58.2,0,0,1-11,0,58.2,58.2,0,0,1,11,0Z" style="fill:#263238"></path><path d="M420.52,232.6a58.2,58.2,0,0,1-11,0,58.2,58.2,0,0,1,11,0Z" style="fill:#263238"></path><path d="M433.53,232.6a58.3,58.3,0,0,1-11,0,58.3,58.3,0,0,1,11,0Z" style="fill:#263238"></path><path d="M446.53,232.6a58.2,58.2,0,0,1-11,0,58.2,58.2,0,0,1,11,0Z" style="fill:#263238"></path><path d="M459.54,232.6a58.2,58.2,0,0,1-11,0,58.2,58.2,0,0,1,11,0Z" style="fill:#263238"></path><path d="M373.73,194.7c0-.06.53,0,.74.73a1.32,1.32,0,0,1-.24,1.2,1.35,1.35,0,0,1-2.29-1,1.34,1.34,0,0,1,.74-1c.67-.31,1.09,0,1,.08s-.4-.07-.85.24a1,1,0,0,0-.44.71.83.83,0,0,0,.53.77.81.81,0,0,0,.92-.12,1,1,0,0,0,.24-.8C374.05,195,373.68,194.77,373.73,194.7Z" style="fill:#263238"></path><path d="M433.61,181.2s.12-.07.35,0a1.39,1.39,0,0,1,.82.53,1.43,1.43,0,0,1,.22,1.45,1.66,1.66,0,0,1-1.52,1,1.55,1.55,0,0,1-1.42-1.12,1.48,1.48,0,0,1,.3-1.44c.61-.62,1.19-.52,1.17-.47s-.48.16-.89.7a1.14,1.14,0,0,0-.12,1.06,1.09,1.09,0,0,0,1,.75,1.23,1.23,0,0,0,1.07-.66,1.06,1.06,0,0,0-.09-1C434.11,181.31,433.59,181.28,433.61,181.2Z" style="fill:#263238"></path><ellipse cx="434.58" cy="154.33" rx="0.26" ry="0.75" style="fill:#263238"></ellipse><path d="M434.58,161.59c-.14,0-.26-.73-.26-1.63s.12-1.62.26-1.62.26.73.26,1.62S434.73,161.59,434.58,161.59Z" style="fill:#263238"></path><path d="M434.58,168.1c-.14,0-.26-.73-.26-1.63s.12-1.62.26-1.62.26.72.26,1.62S434.73,168.1,434.58,168.1Z" style="fill:#263238"></path><path d="M434.58,174.61c-.14,0-.26-.73-.26-1.63s.12-1.63.26-1.63.26.73.26,1.63S434.73,174.61,434.58,174.61Z" style="fill:#263238"></path><path d="M434.58,179.36c-.14,0-.26-.33-.26-.75s.12-.75.26-.75.26.34.26.75S434.73,179.36,434.58,179.36Z" style="fill:#263238"></path><path d="M478.66,144.76c0,.14-10.16.26-22.7.26s-22.7-.12-22.7-.26,10.17-.26,22.7-.26S478.66,144.62,478.66,144.76Z" style="fill:#263238"></path><path d="M463.16,139.62c0,.14-6.54.26-14.61.26s-14.6-.12-14.6-.26,6.54-.26,14.6-.26S463.16,139.48,463.16,139.62Z" style="fill:#263238"></path><path d="M165.59,109.13c.14,0,.26.34.26.75s-.12.75-.26.75-.26-.34-.26-.75S165.44,109.13,165.59,109.13Z" style="fill:#263238"></path><path d="M165.59,103.34c.14,0,.26.65.26,1.45s-.12,1.44-.26,1.44-.26-.64-.26-1.44S165.44,103.34,165.59,103.34Z" style="fill:#263238"></path><path d="M165.59,97.55c.14,0,.26.64.26,1.44s-.12,1.45-.26,1.45-.26-.65-.26-1.45S165.44,97.55,165.59,97.55Z" style="fill:#263238"></path><path d="M165.59,91.76c.14,0,.26.65.26,1.45s-.12,1.44-.26,1.44-.26-.64-.26-1.44S165.44,91.76,165.59,91.76Z" style="fill:#263238"></path><ellipse cx="165.59" cy="87.42" rx="0.26" ry="1.45" style="fill:#263238"></ellipse><path d="M165.59,80.19c.14,0,.26.65.26,1.45s-.12,1.44-.26,1.44-.26-.65-.26-1.44S165.44,80.19,165.59,80.19Z" style="fill:#263238"></path><path d="M165.59,75.79c.14,0,.26.33.26.75s-.12.75-.26.75-.26-.34-.26-.75S165.44,75.79,165.59,75.79Z" style="fill:#263238"></path><path d="M167.09,74.38c0,.14-.34.26-.75.26s-.75-.12-.75-.26.33-.26.75-.26S167.09,74.24,167.09,74.38Z" style="fill:#263238"></path><path d="M173.25,74.38c0,.14-.69.26-1.54.26s-1.54-.12-1.54-.26.69-.26,1.54-.26S173.25,74.24,173.25,74.38Z" style="fill:#263238"></path><path d="M179.41,74.38c0,.14-.69.26-1.54.26s-1.54-.12-1.54-.26.69-.26,1.54-.26S179.41,74.24,179.41,74.38Z" style="fill:#263238"></path><path d="M185.57,74.38c0,.14-.69.26-1.54.26s-1.54-.12-1.54-.26.69-.26,1.54-.26S185.57,74.24,185.57,74.38Z" style="fill:#263238"></path><path d="M191.72,74.38c0,.14-.69.26-1.54.26s-1.53-.12-1.53-.26.68-.26,1.53-.26S191.72,74.24,191.72,74.38Z" style="fill:#263238"></path><path d="M197.87,74.38c0,.14-.69.26-1.54.26s-1.53-.12-1.53-.26.68-.26,1.53-.26S197.87,74.24,197.87,74.38Z" style="fill:#263238"></path><path d="M204,74.38c0,.14-.69.26-1.53.26s-1.54-.12-1.54-.26.69-.26,1.54-.26S204,74.24,204,74.38Z" style="fill:#263238"></path><path d="M210.18,74.38c0,.14-.69.26-1.54.26s-1.54-.12-1.54-.26.69-.26,1.54-.26S210.18,74.24,210.18,74.38Z" style="fill:#263238"></path><path d="M216.33,74.38c0,.14-.69.26-1.54.26s-1.54-.12-1.54-.26.69-.26,1.54-.26S216.33,74.24,216.33,74.38Z" style="fill:#263238"></path><path d="M222.48,74.38c0,.14-.68.26-1.53.26s-1.54-.12-1.54-.26.69-.26,1.54-.26S222.48,74.24,222.48,74.38Z" style="fill:#263238"></path><path d="M228.64,74.38c0,.14-.69.26-1.54.26s-1.54-.12-1.54-.26.69-.26,1.54-.26S228.64,74.24,228.64,74.38Z" style="fill:#263238"></path><path d="M233.25,74.38c0,.14-.33.26-.75.26s-.75-.12-.75-.26.34-.26.75-.26S233.25,74.24,233.25,74.38Z" style="fill:#263238"></path></g></svg>